<svg width="405.045mm" height="539.184mm" viewBox="0 0 405.045 539.184" xmlns="http://www.w3.org/2000/svg" version="1.1" preserveAspectRatio="xMidYMid meet"><g id="svgGroup" stroke-linecap="round" fill-rule="evenodd" font-size="9pt" stroke="#000" stroke-width="0.25mm" fill="none" style="stroke:#000;stroke-width:0.25mm;fill:none"><path d="M 4.129 371.184 L 4.129 405.871 L 0 405.871 L 0 437.746 L 4.129 437.746 L 4.129 469.621 L 0 469.621 L 0 501.496 L 4.129 501.496 L 4.129 533.371 L 4.129 536.184 L 47.157 536.184 L 47.157 539.184 L 79.032 539.184 L 79.032 536.184 L 110.907 536.184 L 126.188 536.184 L 126.188 501.496 L 122.059 501.496 L 122.059 469.621 L 126.188 469.621 L 126.188 437.746 L 122.059 437.746 L 122.059 405.871 L 126.188 405.871 L 126.188 373.996 L 126.188 371.184 L 79.032 371.184 L 79.032 368.184 L 47.157 368.184 L 47.157 371.184 L 15.282 371.184 L 4.129 371.184 Z" id="side1_outsideCutPath" stroke="#FF0000" stroke-width="0.1" style="stroke:#FF0000;stroke-width:0.1" vector-effect="non-scaling-stroke"/><path d="M 133.317 371.184 L 133.317 405.871 L 129.188 405.871 L 129.188 437.746 L 133.317 437.746 L 133.317 469.621 L 129.188 469.621 L 129.188 501.496 L 133.317 501.496 L 133.317 533.371 L 133.317 536.184 L 176.345 536.184 L 176.345 539.184 L 208.22 539.184 L 208.22 536.184 L 240.095 536.184 L 255.377 536.184 L 255.377 501.496 L 251.247 501.496 L 251.247 469.621 L 255.377 469.621 L 255.377 437.746 L 251.247 437.746 L 251.247 405.871 L 255.377 405.871 L 255.377 373.996 L 255.377 371.184 L 208.22 371.184 L 208.22 368.184 L 176.345 368.184 L 176.345 371.184 L 144.47 371.184 L 133.317 371.184 Z" id="side3_outsideCutPath" stroke="#FF0000" stroke-width="0.1" style="stroke:#FF0000;stroke-width:0.1" vector-effect="non-scaling-stroke"/><path d="M 4.129 197.184 L 4.129 231.871 L 0 231.871 L 0 263.746 L 4.129 263.746 L 4.129 295.621 L 0 295.621 L 0 327.496 L 4.129 327.496 L 4.129 359.371 L 4.129 362.184 L 47.157 362.184 L 47.157 365.184 L 79.032 365.184 L 79.032 362.184 L 110.907 362.184 L 126.188 362.184 L 126.188 327.496 L 122.059 327.496 L 122.059 295.621 L 126.188 295.621 L 126.188 263.746 L 122.059 263.746 L 122.059 231.871 L 126.188 231.871 L 126.188 199.996 L 126.188 197.184 L 79.032 197.184 L 79.032 194.184 L 47.157 194.184 L 47.157 197.184 L 15.282 197.184 L 4.129 197.184 Z" id="side0_outsideCutPath" stroke="#FF0000" stroke-width="0.1" style="stroke:#FF0000;stroke-width:0.1" vector-effect="non-scaling-stroke"/><path d="M 133.317 197.184 L 133.317 231.871 L 129.188 231.871 L 129.188 263.746 L 133.317 263.746 L 133.317 295.621 L 129.188 295.621 L 129.188 327.496 L 133.317 327.496 L 133.317 359.371 L 133.317 362.184 L 176.345 362.184 L 176.345 365.184 L 208.22 365.184 L 208.22 362.184 L 240.095 362.184 L 255.377 362.184 L 255.377 327.496 L 251.247 327.496 L 251.247 295.621 L 255.377 295.621 L 255.377 263.746 L 251.247 263.746 L 251.247 231.871 L 255.377 231.871 L 255.377 199.996 L 255.377 197.184 L 208.22 197.184 L 208.22 194.184 L 176.345 194.184 L 176.345 197.184 L 144.47 197.184 L 133.317 197.184 Z" id="side2_outsideCutPath" stroke="#FF0000" stroke-width="0.1" style="stroke:#FF0000;stroke-width:0.1" vector-effect="non-scaling-stroke"/><path d="M 262.506 371.184 L 262.506 405.871 L 258.377 405.871 L 258.377 437.746 L 262.506 437.746 L 262.506 469.621 L 258.377 469.621 L 258.377 501.496 L 262.506 501.496 L 262.506 533.371 L 262.506 536.184 L 305.533 536.184 L 305.533 539.184 L 337.408 539.184 L 337.408 536.184 L 369.283 536.184 L 384.565 536.184 L 384.565 501.496 L 380.436 501.496 L 380.436 469.621 L 384.565 469.621 L 384.565 437.746 L 380.436 437.746 L 380.436 405.871 L 384.565 405.871 L 384.565 373.996 L 384.565 371.184 L 337.408 371.184 L 337.408 368.184 L 305.533 368.184 L 305.533 371.184 L 273.658 371.184 L 262.506 371.184 Z" id="side4_outsideCutPath" stroke="#FF0000" stroke-width="0.1" style="stroke:#FF0000;stroke-width:0.1" vector-effect="non-scaling-stroke"/><path d="M 100.511 0 L 137.873 27.145 L 136.11 29.572 L 161.897 48.308 L 163.661 45.881 L 189.448 64.616 L 201.023 73.026 L 186.752 116.947 L 183.898 116.02 L 174.048 146.335 L 176.902 147.262 L 167.052 177.577 L 162.631 191.184 L 116.449 191.184 L 116.449 188.184 L 84.574 188.184 L 84.574 191.184 L 52.699 191.184 L 38.392 191.184 L 24.121 147.262 L 26.974 146.335 L 17.124 116.02 L 14.271 116.947 L 4.421 86.632 L 0 73.026 L 37.362 45.881 L 39.125 48.308 L 64.913 29.572 L 63.149 27.145 L 88.937 8.409 L 100.511 0 Z" id="top_outsideCutPath" stroke="#FF0000" stroke-width="0.1" style="stroke:#FF0000;stroke-width:0.1" vector-effect="non-scaling-stroke"/><path d="M 304.534 0 L 341.896 27.145 L 340.132 29.572 L 365.92 48.308 L 367.683 45.881 L 393.471 64.616 L 405.045 73.026 L 390.774 116.947 L 387.921 116.02 L 378.071 146.335 L 380.924 147.262 L 371.074 177.577 L 366.653 191.184 L 320.471 191.184 L 320.471 188.184 L 288.596 188.184 L 288.596 191.184 L 256.721 191.184 L 242.414 191.184 L 228.143 147.262 L 230.997 146.335 L 221.147 116.02 L 218.294 116.947 L 208.444 86.632 L 204.023 73.026 L 241.384 45.881 L 243.148 48.308 L 268.935 29.572 L 267.172 27.145 L 292.959 8.409 L 304.534 0 Z" id="bottom_outsideCutPath" stroke="#FF0000" stroke-width="0.1" style="stroke:#FF0000;stroke-width:0.1" vector-effect="non-scaling-stroke"/></g></svg>